<svg version="1.1" xmlns="http://www.w3.org/2000/svg">
  <defs>
    <symbol id="icon-logo" width="100%" height="100%" viewBox="0 0 94 40">
      <path fillRule="evenodd" clipRule="evenodd" d="M45.8872 34.6961C46.3788 35.104 47.0011 35.44 47.7389 35.44C48.3904 35.44 48.897 35.104 48.897 34.5798C48.897 34.1284 48.3763 33.8947 47.7681 33.6325C46.9438 33.2834 45.9887 32.8897 45.9887 31.8261C45.9887 30.5004 47.2624 29.6554 48.5502 29.6554C49.5625 29.6554 50.2431 29.9904 50.7779 30.3841L50.04 31.3454C49.6168 31.0424 49.1127 30.8748 48.5934 30.8647C48.131 30.8647 47.363 31.054 47.363 31.6946C47.363 32.1176 47.942 32.3068 48.5492 32.5841C49.3605 32.9484 50.2722 33.414 50.2722 34.5211C50.2722 35.7891 49.1282 36.6493 47.754 36.6493C46.7688 36.6493 45.8872 36.3568 45.1342 35.7162L45.8872 34.6961ZM52.6598 32.2785H56.2054C56.0747 31.39 55.4967 30.8647 54.5839 30.8647C53.7013 30.8647 52.9634 31.4335 52.6598 32.2785ZM57.5807 32.8452C57.5807 33.0213 57.5505 33.3117 57.5223 33.4433H52.4718C52.515 34.5656 53.2388 35.44 54.4542 35.44C55.1056 35.44 55.6847 35.1768 56.2195 34.7255L57.0438 35.614C56.3934 36.1969 55.6847 36.6483 54.4683 36.6483C53.7163 36.6483 52.9342 36.4449 52.2969 35.9348C51.5449 35.3377 51.0966 34.4351 51.0966 33.3998C51.0966 31.3313 52.5723 29.6554 54.6281 29.6554C56.4507 29.6554 57.5807 31.0115 57.5807 32.8462V32.8452ZM64.5412 35.2649C63.8757 36.1393 62.8765 36.6493 61.6601 36.6493C59.7802 36.6493 58.2884 35.2791 58.2884 33.4008C58.2884 31.3161 59.8667 29.6564 61.9647 29.6564C63.1952 29.6564 64.1793 30.2383 64.8016 31.2149L63.73 31.987C63.3399 31.4041 62.7317 30.967 61.9205 30.967C60.691 30.967 59.6636 32.0741 59.6636 33.3269C59.6636 34.5211 60.4879 35.3377 61.6752 35.3377C62.4714 35.3377 63.1077 34.9431 63.542 34.4047L64.5412 35.2649ZM65.3796 33.8228C65.3796 33.5162 65.4229 33.0355 65.4952 32.6287L65.9878 29.8011H67.3771L66.8846 32.6276C66.8137 33.0171 66.775 33.4117 66.7689 33.8076C66.7689 34.7842 67.4626 35.3377 68.303 35.3377C69.07 35.3377 69.823 34.9299 70.3729 34.2448L71.1399 29.8011H72.5292L71.357 36.5036H70.0401L70.1557 35.9196C69.6199 36.372 68.9393 36.6483 68.1733 36.6483C67.7841 36.6473 67.3992 36.5653 67.043 36.4073C66.6868 36.2494 66.3669 36.0189 66.1034 35.7304C65.6356 35.2068 65.3777 34.527 65.3796 33.8228ZM77.6662 31.0105C77.5378 30.9816 77.4067 30.967 77.2751 30.967C76.4076 30.967 75.5823 31.5499 75.1912 32.1318L74.4392 36.5036H73.0499L74.2221 29.8011H75.539L75.4083 30.4427C75.9009 29.9914 76.6247 29.6554 77.3053 29.6554C77.5506 29.6554 77.7818 29.6848 78.0422 29.7718L77.6662 31.0105ZM80.0397 26.4504C80.5463 26.4504 80.9515 26.8583 80.9515 27.3683C80.9518 27.4882 80.9283 27.607 80.8823 27.7176C80.8364 27.8283 80.7691 27.9286 80.6841 28.0127C80.5992 28.0967 80.4985 28.1629 80.3878 28.2073C80.2771 28.2516 80.1588 28.2733 80.0397 28.271C79.9213 28.2729 79.8038 28.2509 79.6941 28.2062C79.5844 28.1615 79.4847 28.0951 79.401 28.0109C79.3173 27.9267 79.2512 27.8265 79.2067 27.7161C79.1622 27.6057 79.1402 27.4874 79.142 27.3683C79.142 26.8583 79.533 26.4504 80.0397 26.4504ZM80.3433 29.8001L79.1721 36.5026H77.7828L78.955 29.8011H80.3443L80.3433 29.8001ZM85.5245 36.5026C85.2491 36.6048 84.859 36.6493 84.5403 36.6493C83.3682 36.6493 82.1669 35.9207 82.1669 34.4927C82.1669 34.347 82.2392 33.7499 82.2825 33.5313L82.7168 31.0398H80.9796L81.1968 29.8011H82.9339L83.2666 27.9077H84.6559L84.3232 29.8001H86.4795L86.2624 31.0398H84.106L83.6426 33.7348C83.5843 34.0849 83.5421 34.4047 83.5421 34.5363C83.5421 35.1192 83.9904 35.4096 84.5685 35.4096C84.7997 35.4096 85.0751 35.3671 85.2631 35.3084L85.5245 36.5026ZM93.8312 29.8011L87.6225 40H86.0442L88.6057 35.7891L86.957 29.8011H88.3745L89.5607 34.2155L92.2539 29.8011H93.8312ZM42.5989 5.98897C42.1697 5.84527 41.2659 5.74913 40.3612 5.74913C37.6479 5.74913 35.5067 7.71442 34.7457 9.10287V23.716H28.5581V0.478672H34.5074V2.82649C35.8877 1.10307 38.4099 0 41.2187 0C42.1234 0 42.6462 0.0961392 43.3127 0.192278L42.5989 5.98897ZM67.919 18.9728C65.2067 22.614 61.7797 24.1947 57.449 24.1947C50.3094 24.1947 45.0739 18.8291 45.0739 12.1216C45.0739 5.36659 50.4522 0 57.4962 0C61.4942 0 65.063 1.86915 67.2052 4.64808L62.8272 8.52806C61.5897 6.89875 59.733 5.74913 57.4962 5.74913C53.9275 5.74913 51.2614 8.57562 51.2614 12.1216C51.2614 15.7628 53.8792 18.4466 57.639 18.4466C60.1612 18.4466 62.1607 16.9124 63.16 15.3803L67.919 18.9728ZM87.8125 8.6242C87.1497 7.72941 86.2879 7.00337 85.2962 6.50427C84.3044 6.00517 83.2103 5.7469 82.1015 5.75014C78.4835 5.75014 76.1512 8.7679 76.1512 12.1216C76.1512 15.7628 78.769 18.4466 82.2433 18.4466C84.5755 18.4466 86.6223 17.296 87.8125 15.5715V8.6242ZM93.999 23.716H88.0508V21.8489C86.1468 23.4782 83.9573 24.1967 81.625 24.1967C78.197 24.1967 74.962 22.6625 72.9152 20.2682C71.1057 18.1592 69.9637 15.2851 69.9637 12.1216C69.9637 5.27147 75.0103 0 81.2933 0C83.91 0 86.2423 0.862217 88.0518 2.34782V0.478672H94V23.716H93.999ZM12.2786 0C10.6802 0 9.17226 0.286394 7.79502 0.801498C9.48725 2.12079 10.8466 3.82313 11.7629 5.77038C11.9328 5.75823 12.1037 5.75014 12.2786 5.75014C15.8956 5.75014 18.3706 8.6242 18.3706 12.1216C18.3706 15.6191 15.8956 18.4466 12.2786 18.4466C11.9871 18.4466 11.7046 18.4264 11.4281 18.3899C10.398 20.2925 8.93236 21.9205 7.15265 23.1392C8.77112 23.843 10.5166 24.2027 12.2796 24.1957C19.2754 24.1957 24.5581 18.8291 24.5581 12.1227C24.5581 5.41416 19.2754 0 12.2786 0Z" fill="#10111D" />
      <path fillRule="evenodd" clipRule="evenodd" d="M4.98119 21.9076C5.53409 22.3023 6.12319 22.6524 6.74445 22.953C8.43917 21.7309 9.83048 20.1312 10.8098 18.2786C9.90234 18.0708 9.05769 17.6467 8.34687 17.0419C7.59436 18.8934 6.44512 20.5548 4.98119 21.9076ZM11.1245 5.85336C10.2502 3.95956 8.9573 2.29213 7.34461 0.978592C6.67556 1.26093 6.03296 1.603 5.42452 2.0007C6.81723 3.41772 7.88562 5.12391 8.55497 6.99994C9.30592 6.41279 10.188 6.01919 11.1245 5.85336Z" fill="#0080FF"/>
      <path fillRule="evenodd" clipRule="evenodd" d="M8.0332 7.46243C7.42132 5.53163 6.39086 3.76184 5.01635 2.28103C4.36694 2.74351 3.7698 3.26772 3.22896 3.84557C4.81925 6.17098 5.66563 8.9301 5.6547 11.7533C5.6547 14.8753 4.65746 17.7443 2.93742 20.0526C3.44007 20.6284 3.99699 21.1547 4.60318 21.6263C6.04908 20.2071 7.16009 18.4793 7.85426 16.5704C6.79771 15.4278 6.1865 13.8582 6.1865 12.1216C6.1865 10.2899 6.86707 8.63027 8.0332 7.46243Z" fill="#0080FF"/>
      <path fillRule="evenodd" clipRule="evenodd" d="M1.94023 11.7533C1.94023 13.5799 1.59542 15.3195 0.967117 16.9114C1.3833 17.887 1.92515 18.7937 2.57356 19.6134C4.10159 17.385 4.98021 14.681 4.98021 11.7533C4.98021 9.00066 4.20212 6.44032 2.83996 4.28376C2.15134 5.09741 1.5723 6.00415 1.11992 6.98275C1.65272 8.47038 1.94023 10.0764 1.94023 11.7533Z" fill="#0080FF"/>
      <path fillRule="evenodd" clipRule="evenodd" d="M0.620281 15.9885C1.03848 14.6547 1.26467 13.2328 1.26467 11.7523C1.26467 10.4185 1.07869 9.13019 0.735888 7.90872C0.246448 9.25855 -0.00265672 10.6847 2.13657e-05 12.1216C2.13657e-05 13.4767 0.218168 14.7761 0.620281 15.9875" fill="#0080FF"/>
    </symbol>
    <symbol id="icon-symbol-sort" width="100%" height="100%" viewBox="0 0 12 12">
      <path fill-rule="evenodd" clip-rule="evenodd" d="M12 1.2C12 0.537258 11.4627 0 10.8 0H1.2C0.537258 0 0 0.537258 0 1.2V10.8C0 11.4627 0.537258 12 1.2 12H10.8C11.4627 12 12 11.4627 12 10.8V1.2ZM1 1H11V11H1V1Z"/>
      <path d="M2.49998 4.1C2.49998 3.82386 2.72383 3.6 2.99998 3.6H8.99998C9.27612 3.6 9.49998 3.82386 9.49998 4.1C9.49998 4.37614 9.27612 4.6 8.99998 4.6H2.99998C2.72383 4.6 2.49998 4.37614 2.49998 4.1Z" />
      <path d="M4.49995 7.7C4.49995 7.42386 4.72381 7.2 4.99995 7.2H8.99995C9.27609 7.2 9.49995 7.42386 9.49995 7.7C9.49995 7.97614 9.27609 8.2 8.99995 8.2H4.99995C4.72381 8.2 4.49995 7.97614 4.49995 7.7Z" />
    </symbol>
    <symbol id="icon-arrows-sort" width="100%" height="100%" viewBox="0 0 12 11">
      <path d="M3.45186 3.80208L3.45186 10.4103C3.45186 10.686 3.22839 10.9095 2.95273 10.9095C2.67707 10.9095 2.4536 10.686 2.4536 10.4103L2.4536 3.80208H3.45186Z" />
      <path d="M2.5765 0.170748C2.77571 -0.056916 3.12987 -0.056916 3.32908 0.170748L5.78089 2.97282C6.06377 3.29611 5.83418 3.80207 5.4046 3.80207L0.500972 3.80208C0.0713927 3.80208 -0.158195 3.29611 0.124685 2.97282L2.5765 0.170748Z" />
      <path d="M8.54597 7.11184L8.54597 0.503572C8.54597 0.227908 8.76944 0.00443918 9.0451 0.00443923C9.32076 0.00443928 9.54423 0.227909 9.54423 0.503572L9.54423 7.11184H8.54597Z" />
      <path d="M8.66876 10.7432L6.21694 7.94109C5.93406 7.6178 6.16365 7.11184 6.59323 7.11184L11.4969 7.11184C11.9264 7.11184 12.156 7.6178 11.8731 7.94109L9.42133 10.7432C9.22213 10.9708 8.86796 10.9708 8.66876 10.7432Z" />
    </symbol>
    <symbol id="icon-arrow" width="100%" height="100%" viewBox="0 0 8 6">
      <path fill-rule="evenodd" clip-rule="evenodd" d="M4 6L0.0982962 0.795494C-0.185126 0.417436 0.18537 -0.0769778 0.686846 0.010093L2.36696 0.301808C2.788 0.374913 3.21599 0.411721 3.64499 0.411721H4.35502C4.78401 0.411721 5.212 0.374913 5.63304 0.301808L7.31315 0.010093C7.81463 -0.0769773 8.18513 0.417436 7.9017 0.795494L4 6Z" />
    </symbol>
    <symbol id="icon-grid" width="100%" height="100%" viewBox="0 0 13 12">
      <path fill-rule="evenodd" clip-rule="evenodd" d="M1 1V4.00573H4V1H1ZM8.00374 1V4.00573H11.0037V1H8.00374ZM1.00009 7.99427V11H4.00009V7.99427H1.00009ZM8.00374 7.99427V11H11.0037V7.99427H8.00374ZM0.2 0C0.089543 0 0 0.0896455 0 0.200229V4.8055C0 4.91609 0.0895429 5.00573 0.2 5.00573H4.8C4.91046 5.00573 5 4.91609 5 4.8055V0.200229C5 0.0896457 4.91046 0 4.8 0H0.2ZM7.20374 0C7.09328 0 7.00374 0.0896455 7.00374 0.200229V4.8055C7.00374 4.91609 7.09328 5.00573 7.20374 5.00573H11.8037C11.9142 5.00573 12.0037 4.91609 12.0037 4.8055V0.200229C12.0037 0.0896457 11.9142 0 11.8037 0H7.20374ZM9.20296e-05 7.1945C9.20296e-05 7.08391 0.0896351 6.99427 0.200092 6.99427H4.80009C4.91055 6.99427 5.00009 7.08391 5.00009 7.1945V11.7998C5.00009 11.9104 4.91055 12 4.80009 12H0.200092C0.0896349 12 9.20296e-05 11.9104 9.20296e-05 11.7998V7.1945ZM7.20374 6.99427C7.09328 6.99427 7.00374 7.08391 7.00374 7.1945V11.7998C7.00374 11.9104 7.09328 12 7.20374 12H11.8037C11.9142 12 12.0037 11.9104 12.0037 11.7998V7.1945C12.0037 7.08391 11.9142 6.99427 11.8037 6.99427H7.20374Z" />
    </symbol>
    <symbol id="icon-list" width="100%" height="100%" viewBox="0 0 12 12">
      <path fill-rule="evenodd" clip-rule="evenodd" d="M12 1.2C12 0.537258 11.4627 0 10.8 0H1.2C0.537258 0 0 0.537258 0 1.2V10.8C0 11.4627 0.537258 12 1.2 12H10.8C11.4627 12 12 11.4627 12 10.8V1.2ZM1 1H11V3.66184H1V1ZM1 4.67633H11V7.33041H1V4.67633ZM1 8.33817V11H11V8.33817H1Z" />
    </symbol>
  </defs>
</svg>
